<svg width="37" height="36" viewBox="0 0 37 36" fill="none" xmlns="http://www.w3.org/2000/svg">
<path d="M15.1641 0.513224C14.7422 0.0702556 14.1094 -0.0984945 13.5188 0.056193C12.9281 0.210881 12.4711 0.681974 12.3164 1.2726L11.2055 5.66713L6.8461 4.43666C6.25547 4.26791 5.62266 4.43666 5.19375 4.86557C4.76485 5.29447 4.5961 5.92729 4.76485 6.51791L5.99532 10.8773L1.60079 11.9953C1.01016 12.1429 0.546098 12.607 0.384379 13.1976C0.22266 13.7882 0.398442 14.414 0.84141 14.8359L4.08985 17.9999L0.84141 21.164C0.398442 21.5859 0.229692 22.2187 0.384379 22.8093C0.539067 23.3999 1.01016 23.857 1.60079 24.0117L5.99532 25.1226L4.76485 29.482C4.5961 30.0726 4.76485 30.7054 5.19375 31.1343C5.62266 31.5632 6.25547 31.732 6.8461 31.5632L11.2055 30.3328L12.3164 34.7273C12.4641 35.3179 12.9281 35.782 13.5188 35.9437C14.1094 36.1054 14.7352 35.9296 15.1641 35.4937L18.3281 32.2453L21.4922 35.4937C21.9211 35.9296 22.5469 36.1054 23.1375 35.9437C23.7281 35.782 24.1852 35.3179 24.3398 34.7273L25.4508 30.3328L29.8102 31.5632C30.4008 31.732 31.0336 31.5632 31.4625 31.1343C31.8914 30.7054 32.0602 30.0726 31.8914 29.482L30.6609 25.1226L35.0555 24.0117C35.6461 23.864 36.1102 23.3999 36.2719 22.8093C36.4336 22.2187 36.2578 21.5929 35.8219 21.164L32.5734 17.9999L35.8219 14.8359C36.2578 14.407 36.4336 13.7812 36.2719 13.1906C36.1102 12.5999 35.6461 12.1429 35.0555 11.9882L30.6609 10.8773L31.8914 6.51791C32.0602 5.92729 31.8914 5.29447 31.4625 4.86557C31.0336 4.43666 30.4008 4.26791 29.8102 4.43666L25.4508 5.66713L24.3328 1.2726C24.1852 0.681974 23.7211 0.217912 23.1305 0.056193C22.5398 -0.105526 21.9141 0.0702556 21.4922 0.513224L18.3281 3.76166L15.1641 0.513224Z" fill="#C1272D"/>
</svg>
