<svg width="37" height="33" viewBox="0 0 37 33" fill="none" xmlns="http://www.w3.org/2000/svg">
<path d="M8.86174 1.37656C9.17815 0.947656 9.6844 0.6875 10.2188 0.6875H27.0938C27.6282 0.6875 28.1344 0.940625 28.4508 1.37656L36.3258 12.0641C36.8039 12.7109 36.7547 13.6039 36.2203 14.2016L19.9078 32.2016C19.5914 32.5531 19.1344 32.757 18.6563 32.757C18.1782 32.757 17.7282 32.5531 17.4047 32.2016L1.09221 14.2016C0.550808 13.6039 0.50862 12.7109 0.986745 12.0641L8.86174 1.37656ZM11.5688 4.175C11.3367 4.35078 11.2735 4.66719 11.4211 4.91328L15.4571 11.6352L5.10706 12.5C4.81878 12.5211 4.59378 12.7672 4.59378 13.0625C4.59378 13.3578 4.81878 13.5969 5.10706 13.625L18.6071 14.75C18.6352 14.75 18.6703 14.75 18.6985 14.75L32.1985 13.625C32.4867 13.6039 32.7117 13.3578 32.7117 13.0625C32.7117 12.7672 32.4867 12.5281 32.1985 12.5L21.8555 11.6422L25.8914 4.92031C26.0391 4.67422 25.9758 4.35078 25.7438 4.18203C25.5117 4.01328 25.1883 4.04141 24.9914 4.25234L18.6563 11.1078L12.3211 4.24531C12.1242 4.03437 11.8008 4.00625 11.5688 4.175Z" fill="#C1272D"/>
</svg>
