<svg width="45" height="36" viewBox="0 0 45 36" fill="none" xmlns="http://www.w3.org/2000/svg">
<path d="M14.8922 0C15.4406 0 15.8977 0.400781 16.0664 0.928125C16.9312 3.64922 19.4836 5.625 22.5 5.625C25.5164 5.625 28.0687 3.64922 28.9336 0.928125C29.1023 0.400781 29.5594 0 30.1078 0H30.9937C32.5758 0 34.1016 0.555469 35.318 1.56797L44.1914 8.95781C44.6555 9.34453 44.9437 9.90703 44.993 10.5117C45.0422 11.1164 44.8453 11.7141 44.4445 12.1711L40.507 16.6711C39.7055 17.5922 38.3133 17.6977 37.3711 16.9172L33.75 13.9008V31.5C33.75 33.982 31.732 36 29.25 36H15.75C13.268 36 11.25 33.982 11.25 31.5V13.9008L7.6289 16.9172C6.69375 17.6977 5.30156 17.5922 4.49297 16.6711L0.555466 12.1711C0.154685 11.7141 -0.0421899 11.1164 0.00702882 10.5117C0.0562476 9.90703 0.344529 9.34453 0.808591 8.95781L9.68203 1.56797C10.8984 0.555469 12.4242 0 14.0062 0H14.8922Z" fill="#C1272D"/>
</svg>
