<svg width="39" height="36" viewBox="0 0 39 36" fill="none" xmlns="http://www.w3.org/2000/svg">
<path d="M37.5031 7.29844L33.4742 0.921094C33.1156 0.351562 32.4758 0 31.7937 0H6.70625C6.02422 0 5.38437 0.351562 5.02578 0.921094L0.989841 7.29844C-1.09141 10.5891 0.750778 15.1664 4.63906 15.6937C4.92031 15.7289 5.20859 15.75 5.48984 15.75C7.325 15.75 8.95625 14.9484 10.0742 13.7109C11.1922 14.9484 12.8234 15.75 14.6586 15.75C16.4937 15.75 18.125 14.9484 19.243 13.7109C20.3609 14.9484 21.9922 15.75 23.8273 15.75C25.6695 15.75 27.2937 14.9484 28.4117 13.7109C29.5367 14.9484 31.1609 15.75 32.9961 15.75C33.2844 15.75 33.5656 15.7289 33.8469 15.6937C37.7492 15.1734 39.5984 10.5961 37.5102 7.29844H37.5031ZM34.1352 17.9227H34.1281C33.7555 17.9719 33.3758 18 32.9891 18C32.1172 18 31.2805 17.8664 30.5 17.6273V27H8V17.6203C7.2125 17.8664 6.36875 18 5.49687 18C5.11015 18 4.72343 17.9719 4.35078 17.9227H4.34375C4.05547 17.8805 3.77422 17.8313 3.5 17.7609V27V31.5C3.5 33.982 5.51797 36 8 36H30.5C32.982 36 35 33.982 35 31.5V27V17.7609C34.7188 17.8313 34.4375 17.8875 34.1352 17.9227Z" fill="#C1272D"/>
</svg>
