<svg width="40" height="36" viewBox="0 0 40 36" fill="none" xmlns="http://www.w3.org/2000/svg">
<path d="M22.5133 25.8118C24.4328 25.5375 26.1625 24.4477 27.2383 22.7953L38.6078 5.21019C39.4938 3.83909 39.2687 2.02503 38.0734 0.907063C36.8781 -0.210905 35.057 -0.309343 33.7492 0.675032L17.1062 13.1625C15.4187 14.4282 14.4203 16.4039 14.4062 18.5133L22.5133 25.8118ZM21.1352 27.5977L12.9789 20.2571C8.77422 20.4118 5.40625 23.8782 5.40625 28.125C5.40625 28.3993 5.42031 28.6735 5.44844 28.9407C5.575 30.1711 4.73125 31.5 3.49375 31.5H3.15625C1.91172 31.5 0.90625 32.5055 0.90625 33.75C0.90625 34.9946 1.91172 36 3.15625 36H13.2812C17.6336 36 21.1562 32.4774 21.1562 28.125C21.1562 27.9493 21.1492 27.7735 21.1422 27.5977H21.1352Z" fill="#C1272D"/>
</svg>
