<svg width="46" height="36" viewBox="0 0 46 36" fill="none" xmlns="http://www.w3.org/2000/svg">
<path d="M3.70312 0C1.83984 0 0.328125 1.51172 0.328125 3.375V25.875C0.328125 27.7383 1.83984 29.25 3.70312 29.25H4.82812C4.82812 32.9766 7.85156 36 11.5781 36C15.3047 36 18.3281 32.9766 18.3281 29.25H27.3281C27.3281 32.9766 30.3516 36 34.0781 36C37.8047 36 40.8281 32.9766 40.8281 29.25H43.0781C44.3227 29.25 45.3281 28.2445 45.3281 27C45.3281 25.7555 44.3227 24.75 43.0781 24.75V20.25V18V16.6852C43.0781 15.4898 42.607 14.3438 41.7633 13.5L36.3281 8.06484C35.4844 7.22109 34.3383 6.75 33.143 6.75H29.5781V3.375C29.5781 1.51172 28.0664 0 26.2031 0H3.70312ZM29.5781 11.25H33.143L38.5781 16.6852V18H29.5781V11.25ZM8.20312 29.25C8.20312 28.3549 8.5587 27.4964 9.19164 26.8635C9.82458 26.2306 10.683 25.875 11.5781 25.875C12.4732 25.875 13.3317 26.2306 13.9646 26.8635C14.5975 27.4964 14.9531 28.3549 14.9531 29.25C14.9531 30.1451 14.5975 31.0036 13.9646 31.6365C13.3317 32.2694 12.4732 32.625 11.5781 32.625C10.683 32.625 9.82458 32.2694 9.19164 31.6365C8.5587 31.0036 8.20312 30.1451 8.20312 29.25ZM34.0781 25.875C34.9732 25.875 35.8317 26.2306 36.4646 26.8635C37.0975 27.4964 37.4531 28.3549 37.4531 29.25C37.4531 30.1451 37.0975 31.0036 36.4646 31.6365C35.8317 32.2694 34.9732 32.625 34.0781 32.625C33.183 32.625 32.3246 32.2694 31.6916 31.6365C31.0587 31.0036 30.7031 30.1451 30.7031 29.25C30.7031 28.3549 31.0587 27.4964 31.6916 26.8635C32.3246 26.2306 33.183 25.875 34.0781 25.875Z" fill="#C1272D"/>
</svg>
